<svg width="141" height="141" viewBox="0 0 141 141" fill="none" xmlns="http://www.w3.org/2000/svg">
<rect x="4.5" y="4.5" width="132" height="132" rx="66" fill="white"/>
<path fill-rule="evenodd" clip-rule="evenodd" d="M49.9656 52.0731C49.9105 51.3052 50.7073 50.7657 51.3998 51.102L57.5978 54.1114C57.6095 54.1171 57.621 54.1229 57.6323 54.1289C61.6893 52.3675 66.4635 51.3683 71.5732 51.3683C77.5384 51.3683 83.1181 52.5868 87.6179 54.8208L93.4778 51.9755C94.1702 51.6393 94.967 52.1788 94.912 52.9466L94.4192 59.819C94.4172 59.848 94.4139 59.8765 94.4096 59.9045C96.9748 62.8437 98.4086 66.458 98.2547 70.6139C98.2546 79.586 91.8173 86.8072 81.0767 89.1189C85.5703 98.1441 87.6144 105.432 88.2646 112.896C88.9053 120.252 88.1776 127.698 87.2804 136.878L87.2351 137.342L82.2588 136.856L82.273 136.71C83.1958 127.264 83.8838 120.222 83.2834 113.329C82.7195 106.855 81.0055 100.436 77.0978 92.3598H65.1127C61.838 100.768 60.265 107.317 59.7957 113.77C59.2953 120.65 60.0371 127.558 61.4822 136.709L56.5434 137.489C55.0865 128.263 54.2649 120.886 54.8089 113.407C54.9992 110.79 55.3555 108.176 55.901 105.48C45.6954 103.822 39.5763 101.024 33.734 94.4314C32.6441 93.2016 31.466 90.7688 30.7307 88.5473C29.2555 84.0904 29.5628 80.4842 35.9423 89.1505C43.3356 99.1942 49.0801 99.4017 54.3432 99.5918H54.3432C55.3449 99.628 56.3291 99.6636 57.3039 99.7662C58.2687 96.3992 59.5199 92.8332 61.0961 88.9248L61.1331 88.833C50.92 86.2075 44.8918 78.9968 44.8917 70.6139C44.8916 66.0612 46.9623 61.9634 50.4429 58.7308L49.9656 52.0731Z" fill="url(#paint0_linear)"/>
<path fill-rule="evenodd" clip-rule="evenodd" d="M49.9656 52.0731C49.9105 51.3052 50.7073 50.7657 51.3998 51.102L57.5978 54.1114C57.6095 54.1171 57.621 54.1229 57.6323 54.1289C61.6893 52.3675 66.4635 51.3683 71.5732 51.3683C77.5384 51.3683 83.1181 52.5868 87.6179 54.8208L93.4778 51.9755C94.1702 51.6393 94.967 52.1788 94.912 52.9466L94.4192 59.819C94.4172 59.848 94.4139 59.8765 94.4096 59.9045C96.9748 62.8437 98.4086 66.458 98.2547 70.6139C98.2546 79.586 91.8173 86.8072 81.0767 89.1189C85.5703 98.1441 87.6144 105.432 88.2646 112.896C88.9053 120.252 88.1776 127.698 87.2804 136.878L87.2351 137.342L82.2588 136.856L82.273 136.71C83.1958 127.264 83.8838 120.222 83.2834 113.329C82.7195 106.855 81.0055 100.436 77.0978 92.3598H65.1127C61.838 100.768 60.265 107.317 59.7957 113.77C59.2953 120.65 60.0371 127.558 61.4822 136.709L56.5434 137.489C55.0865 128.263 54.2649 120.886 54.8089 113.407C54.9992 110.79 55.3555 108.176 55.901 105.48C45.6954 103.822 39.5763 101.024 33.734 94.4314C32.6441 93.2016 31.466 90.7688 30.7307 88.5473C29.2555 84.0904 29.5628 80.4842 35.9423 89.1505C43.3356 99.1942 49.0801 99.4017 54.3432 99.5918H54.3432C55.3449 99.628 56.3291 99.6636 57.3039 99.7662C58.2687 96.3992 59.5199 92.8332 61.0961 88.9248L61.1331 88.833C50.92 86.2075 44.8918 78.9968 44.8917 70.6139C44.8916 66.0612 46.9623 61.9634 50.4429 58.7308L49.9656 52.0731Z" fill="url(#paint1_linear)"/>
<rect x="4.5" y="4.5" width="132" height="132" rx="66" stroke="url(#paint2_linear)" stroke-width="9"/>
<defs>
<linearGradient id="paint0_linear" x1="84.3599" y1="95.555" x2="2.1306" y2="94.4015" gradientUnits="userSpaceOnUse">
<stop stop-color="#FD0002"/>
<stop offset="0.419517" stop-color="#622B91"/>
<stop offset="1" stop-color="#4D31A5"/>
</linearGradient>
<linearGradient id="paint1_linear" x1="58.8887" y1="41.3928" x2="72.0011" y2="137.149" gradientUnits="userSpaceOnUse">
<stop stop-color="#FC0102"/>
<stop offset="1" stop-color="#4A32A7"/>
</linearGradient>
<linearGradient id="paint2_linear" x1="70.5" y1="0" x2="70.5" y2="141" gradientUnits="userSpaceOnUse">
<stop stop-color="#FC0102"/>
<stop offset="1" stop-color="#4A32A7"/>
</linearGradient>
</defs>
</svg>
