<svg width="197" height="258" viewBox="0 0 197 258" fill="none" xmlns="http://www.w3.org/2000/svg">
<circle cx="98.5" cy="129.5" r="94.5" stroke="#FF9E22" stroke-width="8"/>
<path d="M107.883 204H88.0098V87.7695H107.883V204ZM86.3984 56.9395C86.3984 53.7168 87.3652 50.9954 89.2988 48.7754C91.304 46.5553 94.2402 45.4453 98.1074 45.4453C101.975 45.4453 104.911 46.5553 106.916 48.7754C108.921 50.9954 109.924 53.7168 109.924 56.9395C109.924 60.1621 108.921 62.8477 106.916 64.9961C104.911 67.1445 101.975 68.2188 98.1074 68.2188C94.2402 68.2188 91.304 67.1445 89.2988 64.9961C87.3652 62.8477 86.3984 60.1621 86.3984 56.9395Z" fill="#FF9E22"/>
</svg>
