<svg width="400" height="400" viewBox="0 0 400 400" fill="none" xmlns="http://www.w3.org/2000/svg">
<path d="M170.571 179.296L199.332 202.824L115.094 305.798C108.597 313.74 96.8913 314.911 88.9492 308.414C81.0071 301.917 79.8357 290.212 86.3327 282.27L170.571 179.296Z" stroke="url(#paint0_linear)" stroke-width="6"/>
<path d="M246.743 147.949C247.701 146.617 249.783 146.862 250.19 148.451C255.812 170.38 243.839 193.357 222.085 201.038C199.075 209.163 173.835 197.096 165.711 174.085C158.079 152.471 168.263 128.89 188.598 119.375C190.152 118.647 191.686 120.229 191.117 121.848C172.632 174.436 208.586 201.027 246.743 147.949Z" fill="url(#paint1_linear)"/>
<rect x="236.635" y="67" width="23" height="23" transform="rotate(27.5412 236.635 67)" fill="url(#paint2_linear)"/>
<rect x="295.857" y="164.473" width="23" height="23" transform="rotate(-109.974 295.857 164.473)" fill="url(#paint3_linear)"/>
<rect x="179" y="62.2695" width="23" height="23" transform="rotate(-5.66487 179 62.2695)" fill="url(#paint4_linear)"/>
<rect x="129" y="82.2598" width="23" height="23" transform="rotate(-26.4935 129 82.2598)" fill="url(#paint5_linear)"/>
<rect x="94" y="122.1" width="23" height="23" transform="rotate(-56.1428 94 122.1)" fill="url(#paint6_linear)"/>
<rect x="81" y="172.898" width="23" height="23" transform="rotate(-84.5971 81 172.898)" fill="url(#paint7_linear)"/>
<rect x="278.328" y="125.32" width="23" height="23" transform="rotate(-128.533 278.328 125.32)" fill="url(#paint8_linear)"/>
<rect x="241" y="267.051" width="23" height="23" transform="rotate(-31.5972 241 267.051)" fill="url(#paint9_linear)"/>
<rect x="275" y="241.822" width="23" height="23" transform="rotate(-54.9204 275 241.822)" fill="url(#paint10_linear)"/>
<rect x="294" y="202.807" width="23" height="23" transform="rotate(-82.5633 294 202.807)" fill="url(#paint11_linear)"/>
<path d="M109.823 219.587C100.563 198.675 98.8807 175.19 105.064 153.171C111.247 131.153 124.909 111.977 143.701 98.9421C162.493 85.9071 185.239 79.8276 208.029 81.7492C230.818 83.6709 252.225 93.4736 268.569 109.471C284.912 125.469 295.171 146.662 297.579 169.405C299.988 192.148 294.396 215.019 281.766 234.086C269.136 253.152 250.257 267.221 228.376 273.874C206.495 280.526 182.979 279.346 161.874 270.537L171.789 246.784C187.371 253.288 204.733 254.16 220.889 249.248C237.044 244.336 250.983 233.948 260.309 219.871C269.634 205.794 273.762 188.907 271.984 172.116C270.205 155.324 262.631 139.677 250.564 127.865C238.497 116.053 222.692 108.816 205.866 107.397C189.04 105.978 172.245 110.467 158.371 120.091C144.496 129.715 134.409 143.873 129.844 160.13C125.279 176.387 126.521 193.726 133.358 209.166L109.823 219.587Z" fill="url(#paint12_linear)"/>
<rect x="-4.5" y="4.5" width="391" height="391" rx="195.5" transform="matrix(-1 0 0 1 391 0)" stroke="url(#paint13_linear)" stroke-width="9"/>
<defs>
<linearGradient id="paint0_linear" x1="186.851" y1="188.738" x2="87.0497" y2="310.736" gradientUnits="userSpaceOnUse">
<stop stop-color="#FC0102"/>
<stop offset="1" stop-color="#4A32A7"/>
</linearGradient>
<linearGradient id="paint1_linear" x1="176" y1="204.5" x2="230.5" y2="124" gradientUnits="userSpaceOnUse">
<stop stop-color="#FC0102"/>
<stop offset="1" stop-color="#4A32A7"/>
</linearGradient>
<linearGradient id="paint2_linear" x1="248.135" y1="67" x2="248.135" y2="90" gradientUnits="userSpaceOnUse">
<stop stop-color="#FC0102"/>
<stop offset="1" stop-color="#4A32A7"/>
</linearGradient>
<linearGradient id="paint3_linear" x1="307.357" y1="164.473" x2="307.357" y2="187.473" gradientUnits="userSpaceOnUse">
<stop stop-color="#FC0102"/>
<stop offset="1" stop-color="#4A32A7"/>
</linearGradient>
<linearGradient id="paint4_linear" x1="190.5" y1="62.2695" x2="190.5" y2="85.2695" gradientUnits="userSpaceOnUse">
<stop stop-color="#FC0102"/>
<stop offset="1" stop-color="#4A32A7"/>
</linearGradient>
<linearGradient id="paint5_linear" x1="140.5" y1="82.2598" x2="140.5" y2="105.26" gradientUnits="userSpaceOnUse">
<stop stop-color="#FC0102"/>
<stop offset="1" stop-color="#4A32A7"/>
</linearGradient>
<linearGradient id="paint6_linear" x1="105.5" y1="122.1" x2="105.5" y2="145.1" gradientUnits="userSpaceOnUse">
<stop stop-color="#FC0102"/>
<stop offset="1" stop-color="#4A32A7"/>
</linearGradient>
<linearGradient id="paint7_linear" x1="92.5" y1="172.898" x2="92.5" y2="195.898" gradientUnits="userSpaceOnUse">
<stop stop-color="#FC0102"/>
<stop offset="1" stop-color="#4A32A7"/>
</linearGradient>
<linearGradient id="paint8_linear" x1="289.828" y1="125.32" x2="289.828" y2="148.32" gradientUnits="userSpaceOnUse">
<stop stop-color="#FC0102"/>
<stop offset="0.0001" stop-color="#CD0E2D"/>
<stop offset="0.09375" stop-color="#8F1F67"/>
<stop offset="0.317708" stop-color="#8F1F67"/>
<stop offset="1" stop-color="#4A32A7"/>
</linearGradient>
<linearGradient id="paint9_linear" x1="252.5" y1="267.051" x2="252.5" y2="290.051" gradientUnits="userSpaceOnUse">
<stop stop-color="#FC0102"/>
<stop offset="1" stop-color="#4A32A7"/>
</linearGradient>
<linearGradient id="paint10_linear" x1="286.5" y1="241.822" x2="286.5" y2="264.822" gradientUnits="userSpaceOnUse">
<stop stop-color="#FC0102"/>
<stop offset="1" stop-color="#4A32A7"/>
</linearGradient>
<linearGradient id="paint11_linear" x1="305.5" y1="202.807" x2="305.5" y2="225.807" gradientUnits="userSpaceOnUse">
<stop stop-color="#FC0102"/>
<stop offset="1" stop-color="#4A32A7"/>
</linearGradient>
<linearGradient id="paint12_linear" x1="239.586" y1="269.705" x2="159.941" y2="89.8231" gradientUnits="userSpaceOnUse">
<stop stop-color="#FC0102"/>
<stop offset="1" stop-color="#4A32A7"/>
</linearGradient>
<linearGradient id="paint13_linear" x1="200" y1="0" x2="200" y2="400" gradientUnits="userSpaceOnUse">
<stop stop-color="#FC0102"/>
<stop offset="0.9999" stop-color="#4A32A7"/>
<stop offset="1" stop-color="white" stop-opacity="0"/>
</linearGradient>
</defs>
</svg>
