<svg width="400" height="400" viewBox="0 0 400 400" fill="none" xmlns="http://www.w3.org/2000/svg">
<rect x="4.5" y="4.5" width="391" height="391" rx="195.5" fill="white"/>
<path d="M88 118H312C315.866 118 319 121.134 319 125V247.5C319 251.366 315.866 254.5 312 254.5H288.637C284.954 254.5 281.445 256.062 278.98 258.797L265.318 273.957C262.169 277.451 256.54 276.907 254.118 272.876L246.866 260.805C244.515 256.893 240.286 254.5 235.722 254.5H88C84.134 254.5 81 251.366 81 247.5V125C81 121.134 84.134 118 88 118Z" stroke="url(#paint0_linear)" stroke-width="6"/>
<line x1="131" y1="211.5" x2="239" y2="211.5" stroke="url(#paint1_linear)" stroke-width="3"/>
<line x1="131" y1="176.5" x2="225" y2="176.5" stroke="url(#paint2_linear)" stroke-width="3"/>
<line x1="132" y1="158.5" x2="233" y2="158.5" stroke="url(#paint3_linear)" stroke-width="3"/>
<line x1="131" y1="195.5" x2="212" y2="195.5" stroke="url(#paint4_linear)" stroke-width="3"/>
<path d="M247.287 189.213L284.149 136.605C284.783 135.701 286.03 135.481 286.935 136.115L298.989 144.561C299.894 145.195 300.113 146.442 299.479 147.347L262.579 200.01C262.352 200.333 262.035 200.582 261.667 200.725L250.134 205.22C248.852 205.72 247.46 204.806 247.409 203.431L246.926 190.435C246.91 190 247.036 189.571 247.287 189.213Z" stroke="url(#paint5_linear)" stroke-width="3"/>
<line x1="251.916" y1="183.304" x2="266.919" y2="193.817" stroke="url(#paint6_linear)" stroke-width="2"/>
<line x1="281.627" y1="140.9" x2="296.63" y2="151.413" stroke="url(#paint7_linear)" stroke-width="2"/>
<rect x="4.5" y="4.5" width="391" height="391" rx="195.5" stroke="url(#paint8_linear)" stroke-width="9"/>
<defs>
<linearGradient id="paint0_linear" x1="200" y1="115" x2="200" y2="286" gradientUnits="userSpaceOnUse">
<stop stop-color="#FC0102"/>
<stop offset="1" stop-color="#4A32A7"/>
</linearGradient>
<linearGradient id="paint1_linear" x1="185" y1="213" x2="239" y2="213" gradientUnits="userSpaceOnUse">
<stop stop-color="#4A32A7"/>
<stop offset="1" stop-color="#FC0102"/>
</linearGradient>
<linearGradient id="paint2_linear" x1="178" y1="178" x2="225" y2="178" gradientUnits="userSpaceOnUse">
<stop stop-color="#4A32A7"/>
<stop offset="1" stop-color="#FC0102"/>
</linearGradient>
<linearGradient id="paint3_linear" x1="182.5" y1="160" x2="233" y2="160" gradientUnits="userSpaceOnUse">
<stop stop-color="#4A32A7"/>
<stop offset="1" stop-color="#FC0102"/>
</linearGradient>
<linearGradient id="paint4_linear" x1="171.5" y1="197" x2="212" y2="197" gradientUnits="userSpaceOnUse">
<stop stop-color="#4A32A7"/>
<stop offset="1" stop-color="#FC0102"/>
</linearGradient>
<linearGradient id="paint5_linear" x1="277.658" y1="178.489" x2="262.328" y2="167.747" gradientUnits="userSpaceOnUse">
<stop stop-color="#FC0102"/>
<stop offset="1" stop-color="#4A32A7"/>
</linearGradient>
<linearGradient id="paint6_linear" x1="266.646" y1="195.926" x2="252.082" y2="183.413" gradientUnits="userSpaceOnUse">
<stop stop-color="#FC0102"/>
<stop offset="1" stop-color="#4A32A7"/>
</linearGradient>
<linearGradient id="paint7_linear" x1="297.586" y1="152.34" x2="284.536" y2="145.819" gradientUnits="userSpaceOnUse">
<stop stop-color="#FC0102"/>
<stop offset="1" stop-color="#4A32A7"/>
</linearGradient>
<linearGradient id="paint8_linear" x1="200" y1="0" x2="200" y2="400" gradientUnits="userSpaceOnUse">
<stop stop-color="#FC0102"/>
<stop offset="1" stop-color="#4A32A7"/>
</linearGradient>
</defs>
</svg>
