<svg width="400" height="400" viewBox="0 0 400 400" fill="none" xmlns="http://www.w3.org/2000/svg">
<rect x="253.111" y="183.23" width="4.24286" height="50.0657" rx="2.12143" fill="#C4C4C4"/>
<rect x="253.111" y="183.23" width="4.24286" height="50.0657" rx="2.12143" fill="url(#paint0_linear)"/>
<rect x="237.838" y="183.23" width="4.24286" height="50.0657" rx="2.12143" fill="#C4C4C4"/>
<rect x="237.838" y="183.23" width="4.24286" height="50.0657" rx="2.12143" fill="url(#paint1_linear)"/>
<rect x="188" y="250" width="26" height="5" rx="2.5" fill="url(#paint2_linear)"/>
<line x1="239" y1="154.5" x2="258" y2="154.5" stroke="url(#paint3_linear)" stroke-width="5"/>
<line x1="229" y1="176.5" x2="267" y2="176.5" stroke="url(#paint4_linear)" stroke-width="5"/>
<path d="M268.386 239.242L268.386 172.202C268.386 171.841 268.288 171.486 268.102 171.176L250.38 141.531C249.618 140.256 247.781 140.227 246.98 141.478L227.97 171.157C227.764 171.479 227.654 171.853 227.654 172.235L227.654 239.242" stroke="url(#paint5_linear)" stroke-width="5"/>
<path d="M280.424 140.912L283.458 138.711L283.477 142.46L280.424 140.912Z" stroke="url(#paint6_linear)" stroke-width="1.5"/>
<path d="M168.412 200.312L171.447 198.111L171.465 201.86L168.412 200.312Z" stroke="url(#paint7_linear)" stroke-width="1.5"/>
<path d="M90.3435 224.921L93.3783 222.721L93.3967 226.469L90.3435 224.921Z" stroke="url(#paint8_linear)" stroke-width="1.5"/>
<path d="M80.1599 144.306L83.1947 142.105L83.2131 145.854L80.1599 144.306Z" stroke="url(#paint9_linear)" stroke-width="1.5"/>
<line x1="207.899" y1="267.126" x2="216.385" y2="287.492" stroke="url(#paint10_linear)" stroke-width="5"/>
<line x1="189.284" y1="267.208" x2="181.647" y2="289.271" stroke="url(#paint11_linear)" stroke-width="5"/>
<rect x="56" y="113" width="292" height="152" rx="26" stroke="black" stroke-width="8"/>
<rect x="56" y="113" width="292" height="152" rx="26" stroke="url(#paint12_linear)" stroke-width="8"/>
<rect x="56" y="113" width="292" height="152" rx="26" stroke="url(#paint13_linear)" stroke-width="8"/>
<rect x="164" y="286" width="68" height="5" fill="url(#paint14_linear)"/>
<path d="M104.645 159.6L104.664 159.449V159.297C104.664 156.699 105.806 154.239 107.773 151.629C109.242 149.68 110.996 147.857 112.857 145.923C113.544 145.21 114.245 144.481 114.952 143.726C117.452 141.053 120.005 138.05 121.317 134.619C121.955 132.948 122.288 131.207 122.23 129.396C126.889 132.423 132.123 136.377 136.631 140.757C139.803 143.837 142.554 147.068 144.499 150.275C146.452 153.497 147.5 156.541 147.5 159.297C147.5 165.454 145.127 172.1 141.208 177.183C137.285 182.272 132.064 185.5 126.469 185.5C120.75 185.5 114.876 182.393 110.589 177.442C106.314 172.506 103.861 166.013 104.645 159.6Z" stroke="url(#paint15_linear)" stroke-width="5"/>
<path d="M113.141 240C109.824 218.992 109.567 207.34 118.173 186L135.591 186C145.899 206.502 144.67 218.38 142.558 240" stroke="url(#paint16_linear)" stroke-width="5"/>
<line x1="59" y1="240.5" x2="342" y2="240.5" stroke="url(#paint17_linear)" stroke-width="5"/>
<path d="M114.556 151.486C114.822 151.177 115.212 151 115.62 151V151C116.876 151 117.523 152.534 116.724 153.504C112.282 158.897 112.437 162.787 116.863 168.469C117.647 169.475 116.967 171 115.692 171V171C115.242 171 114.812 170.791 114.537 170.435C108.304 162.366 108.668 158.335 114.556 151.486Z" fill="url(#paint18_linear)"/>
<path d="M212.138 208.193C212.567 206.873 214.433 206.873 214.862 208.193V208.193C215.054 208.783 215.604 209.182 216.225 209.182V209.182C217.612 209.182 218.189 210.958 217.066 211.774V211.774C216.564 212.138 216.354 212.785 216.546 213.375V213.375C216.975 214.695 215.464 215.792 214.342 214.976V214.976C213.84 214.612 213.16 214.612 212.658 214.976V214.976C211.536 215.792 210.025 214.695 210.454 213.375V213.375C210.646 212.785 210.436 212.138 209.934 211.774V211.774C208.811 210.958 209.388 209.182 210.775 209.182V209.182C211.396 209.182 211.946 208.783 212.138 208.193V208.193Z" fill="url(#paint19_linear)"/>
<path d="M285.547 187.472C286.004 186.064 287.996 186.064 288.453 187.472V187.472C288.658 188.102 289.244 188.528 289.906 188.528V188.528C291.386 188.528 292.002 190.422 290.804 191.292V191.292C290.269 191.681 290.045 192.37 290.249 193V193C290.707 194.408 289.095 195.578 287.898 194.708V194.708C287.363 194.319 286.637 194.319 286.102 194.708V194.708C284.905 195.578 283.293 194.408 283.751 193V193C283.955 192.37 283.731 191.681 283.196 191.292V191.292C281.998 190.422 282.614 188.528 284.094 188.528V188.528C284.756 188.528 285.342 188.102 285.547 187.472V187.472Z" fill="url(#paint20_linear)"/>
<path d="M313.549 150.187C314.023 148.82 315.977 148.82 316.451 150.187V150.187C316.656 150.779 317.216 151.182 317.842 151.182H318.005C319.401 151.182 319.958 152.988 318.804 153.774V153.774C318.274 154.135 318.053 154.81 318.263 155.416V155.416C318.72 156.734 317.238 157.889 316.085 157.104L315.865 156.954C315.343 156.598 314.657 156.598 314.135 156.954L313.915 157.104C312.762 157.889 311.28 156.734 311.737 155.416V155.416C311.947 154.81 311.726 154.135 311.196 153.774V153.774C310.042 152.988 310.599 151.182 311.995 151.182H312.158C312.784 151.182 313.344 150.779 313.549 150.187V150.187Z" fill="url(#paint21_linear)"/>
<path d="M170.138 150.193C170.567 148.873 172.433 148.873 172.862 150.193V150.193C173.054 150.783 173.604 151.182 174.225 151.182V151.182C175.612 151.182 176.189 152.958 175.066 153.774V153.774C174.564 154.138 174.354 154.785 174.546 155.375V155.375C174.975 156.695 173.464 157.792 172.342 156.976V156.976C171.84 156.612 171.16 156.612 170.658 156.976V156.976C169.536 157.792 168.025 156.695 168.454 155.375V155.375C168.646 154.785 168.436 154.138 167.934 153.774V153.774C166.811 152.958 167.388 151.182 168.775 151.182V151.182C169.396 151.182 169.946 150.783 170.138 150.193V150.193Z" fill="url(#paint22_linear)"/>
<rect x="193" y="171" width="11" height="11" rx="5.5" fill="url(#paint23_linear)"/>
<rect x="312" y="215" width="11" height="11" rx="5.5" fill="url(#paint24_linear)"/>
<rect x="72" y="179" width="11" height="11" rx="5.5" fill="url(#paint25_linear)"/>
<rect x="4.5" y="4.5" width="391" height="391" rx="195.5" stroke="url(#paint26_linear)" stroke-width="9"/>
<defs>
<linearGradient id="paint0_linear" x1="255.233" y1="183.23" x2="255.233" y2="233.296" gradientUnits="userSpaceOnUse">
<stop stop-color="#FFEB3B"/>
<stop offset="1" stop-color="#F57F17"/>
</linearGradient>
<linearGradient id="paint1_linear" x1="239.959" y1="183.23" x2="239.959" y2="233.296" gradientUnits="userSpaceOnUse">
<stop stop-color="#FFEB3B"/>
<stop offset="1" stop-color="#F57F17"/>
</linearGradient>
<linearGradient id="paint2_linear" x1="188" y1="253" x2="214.002" y2="253.352" gradientUnits="userSpaceOnUse">
<stop stop-color="#FB0104"/>
<stop offset="1" stop-color="#4B31A6"/>
</linearGradient>
<linearGradient id="paint3_linear" x1="243.956" y1="157" x2="279.82" y2="141.05" gradientUnits="userSpaceOnUse">
<stop stop-color="#CA004E"/>
<stop offset="0.502766" stop-color="#B7075B"/>
<stop offset="0.738118" stop-color="#4932A7"/>
</linearGradient>
<linearGradient id="paint4_linear" x1="174.159" y1="151" x2="315.483" y2="208.897" gradientUnits="userSpaceOnUse">
<stop stop-color="#FC0102"/>
<stop offset="1" stop-color="#4932A7"/>
</linearGradient>
<linearGradient id="paint5_linear" x1="176.316" y1="127.226" x2="254.809" y2="266.816" gradientUnits="userSpaceOnUse">
<stop stop-color="#FF0000"/>
<stop offset="1" stop-color="#6200EA"/>
</linearGradient>
<linearGradient id="paint6_linear" x1="284.201" y1="137.246" x2="280.748" y2="144.058" gradientUnits="userSpaceOnUse">
<stop stop-color="#4A32A7"/>
<stop offset="1" stop-color="#FD0002"/>
</linearGradient>
<linearGradient id="paint7_linear" x1="172.19" y1="196.646" x2="168.736" y2="203.458" gradientUnits="userSpaceOnUse">
<stop stop-color="#4A32A7"/>
<stop offset="1" stop-color="#FD0002"/>
</linearGradient>
<linearGradient id="paint8_linear" x1="94.1211" y1="221.256" x2="90.6675" y2="228.067" gradientUnits="userSpaceOnUse">
<stop stop-color="#4A32A7"/>
<stop offset="1" stop-color="#FD0002"/>
</linearGradient>
<linearGradient id="paint9_linear" x1="83.9376" y1="140.64" x2="80.4839" y2="147.452" gradientUnits="userSpaceOnUse">
<stop stop-color="#4A32A7"/>
<stop offset="1" stop-color="#FD0002"/>
</linearGradient>
<linearGradient id="paint10_linear" x1="193.088" y1="249.679" x2="212.148" y2="286.471" gradientUnits="userSpaceOnUse">
<stop stop-color="#F2030C"/>
<stop offset="0.964479" stop-color="#522FA1"/>
</linearGradient>
<linearGradient id="paint11_linear" x1="164.291" y1="337.768" x2="212.53" y2="248.521" gradientUnits="userSpaceOnUse">
<stop stop-color="#F60208"/>
<stop offset="0.0001" stop-color="#F60208"/>
<stop offset="0.00890588" stop-color="#CE0D2D"/>
<stop offset="0.724593" stop-color="#A81851"/>
<stop offset="1" stop-color="#4F30A3"/>
<stop offset="1" stop-color="white" stop-opacity="0"/>
</linearGradient>
<linearGradient id="paint12_linear" x1="350.286" y1="269" x2="351.994" y2="109" gradientUnits="userSpaceOnUse">
<stop stop-color="#B388FF"/>
<stop offset="1" stop-color="#74B9FF"/>
</linearGradient>
<linearGradient id="paint13_linear" x1="352" y1="269" x2="52" y2="269" gradientUnits="userSpaceOnUse">
<stop stop-color="#311B92" stop-opacity="0.8"/>
<stop offset="1" stop-color="#FF0000"/>
</linearGradient>
<linearGradient id="paint14_linear" x1="128.3" y1="288.5" x2="232" y2="288.5" gradientUnits="userSpaceOnUse">
<stop stop-color="#FA0105"/>
<stop offset="1" stop-color="#4D30A5"/>
</linearGradient>
<linearGradient id="paint15_linear" x1="124.375" y1="118.453" x2="124.375" y2="178.187" gradientUnits="userSpaceOnUse">
<stop stop-color="#FFEB3B"/>
<stop offset="1" stop-color="#F57F17"/>
</linearGradient>
<linearGradient id="paint16_linear" x1="111" y1="213" x2="187.112" y2="187.981" gradientUnits="userSpaceOnUse">
<stop stop-color="#FD0002"/>
<stop offset="0.419517" stop-color="#622B91"/>
<stop offset="1" stop-color="#4D31A5"/>
</linearGradient>
<linearGradient id="paint17_linear" x1="342" y1="243.001" x2="59" y2="243" gradientUnits="userSpaceOnUse">
<stop stop-color="#6200EA"/>
<stop offset="1" stop-color="#FD0000"/>
</linearGradient>
<linearGradient id="paint18_linear" x1="113.369" y1="128.083" x2="114.583" y2="170.998" gradientUnits="userSpaceOnUse">
<stop stop-color="#FFEB3B"/>
<stop offset="1" stop-color="#FFA726"/>
</linearGradient>
<linearGradient id="paint19_linear" x1="213.5" y1="204" x2="213.5" y2="219" gradientUnits="userSpaceOnUse">
<stop stop-color="#FC0102"/>
<stop offset="1" stop-color="#622B91"/>
</linearGradient>
<linearGradient id="paint20_linear" x1="287" y1="183" x2="287" y2="199" gradientUnits="userSpaceOnUse">
<stop stop-color="#FC0102"/>
<stop offset="1" stop-color="#622B91"/>
</linearGradient>
<linearGradient id="paint21_linear" x1="315" y1="146" x2="315" y2="161" gradientUnits="userSpaceOnUse">
<stop stop-color="#FC0102"/>
<stop offset="1" stop-color="#622B91"/>
</linearGradient>
<linearGradient id="paint22_linear" x1="171.5" y1="146" x2="171.5" y2="161" gradientUnits="userSpaceOnUse">
<stop stop-color="#FC0102"/>
<stop offset="1" stop-color="#622B91"/>
</linearGradient>
<linearGradient id="paint23_linear" x1="198.5" y1="171" x2="198.5" y2="182" gradientUnits="userSpaceOnUse">
<stop stop-color="#FC0102"/>
<stop offset="1" stop-color="#4A32A7"/>
</linearGradient>
<linearGradient id="paint24_linear" x1="317.5" y1="215" x2="317.5" y2="226" gradientUnits="userSpaceOnUse">
<stop stop-color="#FC0102"/>
<stop offset="1" stop-color="#4A32A7"/>
</linearGradient>
<linearGradient id="paint25_linear" x1="77.5" y1="179" x2="77.5" y2="190" gradientUnits="userSpaceOnUse">
<stop stop-color="#FC0102"/>
<stop offset="1" stop-color="#4A32A7"/>
</linearGradient>
<linearGradient id="paint26_linear" x1="200" y1="0" x2="200" y2="400" gradientUnits="userSpaceOnUse">
<stop stop-color="#FC0102"/>
<stop offset="1" stop-color="#4A32A7"/>
</linearGradient>
</defs>
</svg>
