<svg width="408" height="408" viewBox="0 0 408 408" fill="none" xmlns="http://www.w3.org/2000/svg">
<path d="M66 178C66 161.431 79.4315 148 96 148H313C329.569 148 343 161.431 343 178V291H66V178Z" fill="url(#paint0_linear)"/>
<rect x="190" y="64" width="22" height="68" rx="11" fill="url(#paint1_linear)"/>
<circle cx="201.5" cy="59.5" r="21.5" fill="url(#paint2_linear)"/>
<ellipse cx="290.5" cy="202" rx="17.5" ry="17" fill="white"/>
<circle cx="122" cy="202" r="17" fill="white"/>
<rect x="113" y="309" width="183" height="22" rx="11" fill="url(#paint3_linear)"/>
<rect x="139" y="349" width="130" height="21" rx="10.5" fill="url(#paint4_linear)"/>
<rect x="5" y="5" width="398" height="398" rx="199" stroke="url(#paint5_linear)" stroke-width="10"/>
<defs>
<linearGradient id="paint0_linear" x1="204.5" y1="148" x2="204.5" y2="291" gradientUnits="userSpaceOnUse">
<stop stop-color="#FC0102"/>
<stop offset="1" stop-color="#FFC400"/>
</linearGradient>
<linearGradient id="paint1_linear" x1="203.538" y1="80.6046" x2="201.321" y2="132.014" gradientUnits="userSpaceOnUse">
<stop stop-color="#FFC400"/>
<stop offset="1" stop-color="#FC0102"/>
</linearGradient>
<linearGradient id="paint2_linear" x1="201.5" y1="38" x2="201.5" y2="81" gradientUnits="userSpaceOnUse">
<stop stop-color="#FC0102"/>
<stop offset="1" stop-color="#FFC400"/>
</linearGradient>
<linearGradient id="paint3_linear" x1="204.5" y1="309" x2="204.5" y2="331" gradientUnits="userSpaceOnUse">
<stop stop-color="#FC0102"/>
<stop offset="1" stop-color="#FFC400"/>
</linearGradient>
<linearGradient id="paint4_linear" x1="204" y1="349" x2="204" y2="370" gradientUnits="userSpaceOnUse">
<stop stop-color="#FC0102"/>
<stop offset="1" stop-color="#FFC400"/>
</linearGradient>
<linearGradient id="paint5_linear" x1="204" y1="0" x2="204" y2="408" gradientUnits="userSpaceOnUse">
<stop stop-color="#FC0102"/>
<stop offset="1" stop-color="#FFC400"/>
</linearGradient>
</defs>
</svg>
